<svg width="47" height="44" viewBox="0 0 47 44" fill="none" xmlns="http://www.w3.org/2000/svg">
<path fill-rule="evenodd" clip-rule="evenodd" d="M20.139 0.0993947C19.1022 0.337955 18.018 1.0737 17.5329 1.86779C17.3713 2.13217 17.2855 2.17314 16.7021 2.26455C16.327 2.32326 15.7718 2.50228 15.3906 2.68752C13.9099 3.40691 13.1283 4.75996 13.1137 6.62943C13.1078 7.39175 13.1074 7.39314 12.8021 7.58395C12.3227 7.88373 11.4479 8.88739 11.1795 9.44571C10.6653 10.5151 10.4633 11.987 10.6351 13.4136C10.8268 15.0068 11.4582 16.2006 12.5634 17.0601L13.101 17.4782L13.1104 18.2213C13.1382 20.4404 14.2753 21.9686 16.2872 22.4917C16.5882 22.57 16.9465 22.634 17.0833 22.634C17.2664 22.634 17.3822 22.7162 17.5225 22.9457C17.8039 23.4063 18.543 24.0712 19.0788 24.3459C20.4782 25.0632 22.1647 24.9833 23.1219 24.1545L23.5 23.8271L23.8781 24.1545C24.8353 24.9833 26.5218 25.0632 27.9212 24.3459C28.4513 24.0742 29.1954 23.4075 29.4696 22.9587C29.6288 22.6982 29.717 22.6519 30.1549 22.5999C31.3489 22.4579 32.4983 21.8005 33.1015 20.9144C33.625 20.1456 33.806 19.5526 33.8558 18.4437C33.8986 17.4902 33.9081 17.4536 34.1501 17.3088C34.5848 17.0491 35.5896 15.8941 35.8318 15.3756C36.2591 14.4613 36.3882 13.7749 36.3882 12.4153C36.3882 11.0425 36.2561 10.3517 35.8205 9.44571C35.5573 8.89835 34.7225 7.93362 34.201 7.57438L33.8788 7.35236L33.8781 6.60546C33.8762 4.28386 32.5363 2.65036 30.3257 2.27468C29.7162 2.1711 29.6263 2.12837 29.466 1.86593C29.1663 1.37543 28.3942 0.713075 27.7909 0.428995C26.3546 -0.247298 24.6792 -0.10275 23.7581 0.776988L23.511 1.01295L23.1275 0.680839C22.4377 0.0836022 21.2292 -0.151521 20.139 0.0993947ZM20.5153 1.90671C20.1426 2.00537 19.641 2.2705 19.3928 2.49996L19.1887 2.68872L19.4738 3.01712C19.9622 3.57989 20.192 4.19868 20.193 4.95421C20.1941 5.7796 20.0987 6.04529 19.7141 6.28757C19.3228 6.53402 18.9423 6.46621 18.6033 6.08979C18.398 5.86173 18.3474 5.7221 18.3593 5.416C18.3875 4.68546 18.3565 4.54361 18.1151 4.29938C17.6241 3.80275 16.2959 4.05877 15.6004 4.78421C15.0611 5.34661 14.9325 5.78759 14.9461 7.02787C14.959 8.19735 14.862 8.4152 14.1006 8.92641C13.4685 9.35086 12.9718 9.9009 12.7381 10.4355C12.3053 11.4251 12.3072 13.4097 12.7418 14.4035C12.974 14.9347 13.5122 15.5291 14.1148 15.9202C14.8556 16.4008 14.959 16.635 14.9461 17.8027C14.94 18.3663 14.9854 18.9459 15.0539 19.1743C15.2904 19.9635 16.0773 20.6268 16.9105 20.7393C17.2832 20.7897 17.3141 20.7748 17.5864 20.4129C18.2433 19.5397 19.1545 19.0879 20.2465 19.0937C21.0257 19.0977 21.2957 19.1886 21.5681 19.5382C21.8417 19.8892 21.7788 20.4528 21.4325 20.7542C21.2243 20.9353 21.0978 20.9626 20.5314 20.9483C19.8154 20.9301 19.4817 21.0493 19.1044 21.458L18.8873 21.693L19.0935 21.986C19.7187 22.8742 21.1488 23.275 21.905 22.7739C22.034 22.6883 22.2287 22.4233 22.3377 22.1849L22.5357 21.7514V12.4153V3.07908L22.3377 2.64562C22.2287 2.40724 22.0377 2.14462 21.9131 2.06204C21.6465 1.88535 20.9066 1.80313 20.5153 1.90671ZM25.3958 1.91535C25.0158 2.03798 24.814 2.25526 24.6283 2.74205C24.4747 3.14448 24.4643 3.7655 24.4643 12.4617V21.7514L24.6939 22.2159C25.0002 22.8357 25.3734 23.0358 26.0938 22.9665C26.7225 22.9059 27.1138 22.7521 27.5192 22.4064L27.819 22.1506L27.53 21.8178C27.0351 21.2477 26.808 20.6344 26.807 19.8656C26.8059 19.0598 26.9681 18.6778 27.3862 18.5012C27.7822 18.3338 28.1397 18.4204 28.4141 18.7502C28.6088 18.9844 28.6402 19.1094 28.6267 19.6005C28.6002 20.577 28.9017 20.8455 29.9204 20.7521C30.5801 20.6915 31.1033 20.4257 31.511 19.9439C31.9418 19.4349 32.0609 18.9639 32.0516 17.8063C32.0423 16.6335 32.1454 16.4002 32.8852 15.9202C33.4886 15.5285 34.026 14.9346 34.2592 14.4013C34.6895 13.4173 34.6895 11.4132 34.2592 10.4292C34.028 9.90053 33.5291 9.34928 32.8994 8.92641C32.1325 8.41148 32.0432 8.2059 32.0547 6.98142C32.0629 6.11023 32.0332 5.88272 31.8579 5.47044C31.5947 4.85156 31.0835 4.38391 30.4683 4.19905C29.7855 3.99393 29.708 4.01056 29.4254 4.42312C28.5466 5.70603 26.2882 6.23313 25.4871 5.34234C25.2609 5.09077 25.2312 4.99685 25.2748 4.66855C25.3093 4.40835 25.4059 4.21698 25.5787 4.06658C25.8016 3.8727 25.8966 3.85217 26.3711 3.89565C27.0524 3.95817 27.4046 3.8557 27.7828 3.48495C28.0624 3.21081 28.0742 3.17486 27.9582 2.9493C27.5704 2.19544 26.2183 1.64994 25.3958 1.91535ZM1.77884 5.61527C0.867371 5.93409 0.262815 6.57973 0.080612 7.4289C0.00714312 7.77114 -0.0137037 10.3592 0.00833699 16.4099C0.0391939 24.9021 0.0393776 24.9106 0.246284 25.6531C0.534925 26.6892 1.16483 27.9385 1.82788 28.7902C2.29322 29.3879 3.0358 30.0391 6.14905 32.58L9.90826 35.6482V39.4109C9.90826 43.5392 9.91267 43.5751 10.4562 43.8594C10.6828 43.978 11.2636 44.0003 14.1052 44C17.2905 43.9997 17.5015 43.9893 17.7776 43.819C17.9743 43.6977 18.1022 43.5226 18.1674 43.2852C18.2941 42.8237 18.299 32.6087 18.173 31.2664C18.0066 29.4907 17.4954 27.9983 16.5606 26.5591C16.1273 25.8921 15.3925 25.1063 12.4691 22.1841L8.90578 18.6222L8.87896 14.8452C8.85242 11.1018 8.85022 11.064 8.63514 10.5827C8.20581 9.62212 7.22913 8.971 6.19395 8.95512L5.6141 8.9462L5.55441 8.33503C5.45614 7.32885 5.25695 6.85916 4.68187 6.27809C3.88437 5.47221 2.85792 5.23792 1.77884 5.61527ZM43.2452 5.6044C42.994 5.69748 42.6313 5.96075 42.3186 6.27707C41.743 6.85926 41.5439 7.32895 41.4456 8.33503L41.3859 8.9462L40.806 8.95512C39.7983 8.97054 38.8891 9.55468 38.3932 10.505L38.1479 10.9754L38.1202 14.8L38.0926 18.6246L34.5313 22.1854C31.6197 25.0965 30.8735 25.8943 30.4408 26.5591C29.5056 27.9953 28.9935 29.4889 28.8269 31.2664C28.701 32.6087 28.7059 42.8237 28.8326 43.2852C28.8978 43.5226 29.0257 43.6977 29.2224 43.819C29.4985 43.9893 29.7095 43.9997 32.8948 44C35.7364 44.0003 36.3172 43.978 36.5437 43.8594C37.0872 43.5751 37.0917 43.5389 37.0917 39.4138V35.6541L39.9157 33.3482C41.4689 32.08 43.1505 30.7077 43.6527 30.2986C45.1803 29.0542 46.2439 27.4597 46.7515 25.6531L46.9603 24.91L46.9914 16.4099C47.0139 10.2853 46.9933 7.77337 46.9178 7.42194C46.7724 6.74462 46.25 6.09731 45.5816 5.7666C44.9235 5.4409 43.8819 5.36863 43.2452 5.6044ZM2.23995 7.4132C1.81227 7.64981 1.82669 7.35069 1.82669 15.967C1.82669 25.1788 1.81016 24.9284 2.51427 26.3963C2.73486 26.8562 3.1146 27.4688 3.35824 27.7579C3.60629 28.0522 5.4172 29.597 7.47461 31.2694C9.495 32.9118 11.2823 34.3991 11.4465 34.5746L11.745 34.8937V38.5196V42.1456L14.0638 42.1208L16.3827 42.096L16.3816 36.5686C16.3806 31.1578 16.3763 31.0239 16.1756 30.2236C15.925 29.2237 15.4643 28.1942 14.9269 27.4331C14.5236 26.8618 7.83828 20.0576 7.2463 19.6157C6.42694 19.0043 5.27605 19.7361 5.46386 20.7491C5.51556 21.0277 6.02874 21.6162 8.52071 24.2544C12.6907 28.6691 12.4797 28.4292 12.4797 28.7553C12.4797 29.1771 12.3043 29.4832 11.9709 29.6433C11.6125 29.8153 11.5468 29.8187 11.2469 29.6805C11.1197 29.6219 9.49564 27.9693 7.63798 26.0079C3.89355 22.0548 3.65432 21.7398 3.66295 20.776C3.74432 11.7186 3.75534 8.57795 3.70694 8.24296C3.62548 7.67945 3.25189 7.30489 2.77508 7.3087C2.58177 7.31027 2.34097 7.35728 2.23995 7.4132ZM43.6129 7.56946C43.4399 7.74448 43.3325 7.97087 43.2931 8.24296C43.2458 8.57033 43.2904 19.183 43.3452 20.6367C43.3643 21.1455 43.2022 21.6962 42.9006 22.1469C42.7616 22.3548 41.8496 23.3632 40.874 24.3878C38.9471 26.4116 38.7876 26.5212 38.2076 26.2178C37.8579 26.0349 37.7346 25.8138 37.7346 25.3699C37.7346 24.9968 37.7032 25.0341 40.3144 22.3088C41.2424 21.3403 41.4841 21.0332 41.5349 20.7577C41.7318 19.6899 40.5492 18.988 39.6988 19.668C38.9836 20.2397 32.4658 26.8768 32.0731 27.4331C31.5357 28.1942 31.075 29.2238 30.8244 30.2236C30.6237 31.0239 30.6194 31.1578 30.6184 36.5686L30.6173 42.096L32.9362 42.1208L35.255 42.1456V38.5196V34.8937L35.5535 34.5781C35.7177 34.4044 37.505 32.9167 39.5254 31.272C41.5585 29.617 43.3966 28.0475 43.6418 27.7571C43.8854 27.4685 44.2651 26.8562 44.4857 26.3963C45.19 24.928 45.1735 25.1788 45.1719 15.9725C45.1711 11.4868 45.1402 7.77262 45.1031 7.71856C44.7779 7.24487 44.0097 7.16805 43.6129 7.56946ZM17.3811 10.6699C16.8584 10.8402 16.2184 11.4133 15.9435 11.9571C15.4125 13.0074 15.5398 14.1565 16.2787 14.982C16.6377 15.3832 16.7206 15.4302 17.0687 15.4302C17.3913 15.4302 17.5029 15.3789 17.7237 15.1289C18.0659 14.7415 18.0639 14.4116 17.716 13.8923C17.381 13.3922 17.3678 13.0722 17.6677 12.7117C17.8331 12.5129 18.0104 12.4194 18.3067 12.3744C19.1264 12.25 19.4665 11.3864 18.9153 10.8289C18.6822 10.5931 18.5824 10.5585 18.1576 10.5668C17.8885 10.572 17.5391 10.6184 17.3811 10.6699ZM28.0847 10.8289C27.5335 11.3864 27.8736 12.25 28.6933 12.3744C28.9896 12.4194 29.1669 12.5129 29.3323 12.7117C29.6322 13.0722 29.619 13.3922 29.284 13.8923C28.9361 14.4116 28.9341 14.7415 29.2763 15.1289C29.4971 15.3789 29.6087 15.4302 29.9313 15.4302C30.2794 15.4302 30.3623 15.3832 30.7213 14.982C32.2148 13.3134 31.0092 10.5573 28.7858 10.5573C28.4301 10.5573 28.3055 10.6056 28.0847 10.8289ZM5.7986 10.8369L5.59197 10.923V14.3102V17.6974L5.88979 17.611C6.05363 17.5635 6.38424 17.5246 6.62448 17.5246H7.06135V14.5579C7.06135 12.8974 7.02268 11.4885 6.97364 11.3578C6.81798 10.9437 6.20011 10.6698 5.7986 10.8369ZM40.491 10.9059C39.9493 11.1806 39.9415 11.2322 39.94 14.5287L39.9387 17.5246H40.3755C40.6158 17.5246 40.9464 17.5635 41.1102 17.611L41.408 17.6974V14.3108V10.9243L41.1725 10.8337C40.866 10.7158 40.8653 10.7159 40.491 10.9059ZM35.2828 27.6687C35.1718 27.723 35.0141 27.9099 34.9325 28.084C34.5758 28.8443 35.3607 29.638 36.1124 29.2772C36.6877 29.001 36.8126 28.2827 36.3641 27.8291C36.077 27.5387 35.6719 27.4786 35.2828 27.6687Z" fill="white"/>
</svg>
