<svg width="50" height="54" viewBox="0 0 50 54" fill="none" xmlns="http://www.w3.org/2000/svg">
<path fill-rule="evenodd" clip-rule="evenodd" d="M24.0544 0.124306C23.3406 0.332994 22.9189 0.584665 22.4223 1.09825C21.6597 1.88706 21.2551 3.04372 21.3917 4.04491C21.4527 4.49271 21.4396 4.52386 21.1151 4.70287C18.335 6.23614 16.7005 9.07053 16.7005 12.3583C16.7005 13.145 16.7198 13.2168 17.0076 13.5062C17.2796 13.7796 17.3876 13.8149 17.9531 13.8149H18.5915V14.796C18.5915 16.6625 19.1868 18.1225 20.4761 19.4187C21.7466 20.6958 23.2209 21.3133 24.9999 21.3133C26.7789 21.3133 28.2533 20.6958 29.5237 19.4187C30.8133 18.1222 31.4083 16.6626 31.4083 14.7948V13.8124L32.1108 13.8277C32.7523 13.8416 32.8344 13.8183 33.0563 13.559C33.2681 13.3116 33.2993 13.1623 33.2993 12.3971C33.2993 9.10126 31.7314 6.32517 28.992 4.77078L28.6243 4.56209L28.6092 3.72312C28.5915 2.75118 28.4064 2.16704 27.8927 1.46367C27.0443 0.301627 25.4047 -0.270469 24.0544 0.124306ZM24.212 1.92487C23.5818 2.2077 23.1089 2.91794 23.1089 3.58191V3.89621L23.9231 3.81584C24.9321 3.71625 25.0677 3.71625 26.0767 3.81584L26.8909 3.89621V3.58191C26.8909 2.90568 26.4118 2.19883 25.7649 1.92065C25.3405 1.73805 24.6239 1.74005 24.212 1.92487ZM23.5468 5.63352C21.7401 6.02777 19.9426 7.46936 19.1398 9.16801C18.698 10.1029 18.4865 10.8911 18.4865 11.6032V12.0213L19.0905 11.959C21.8006 11.6794 24.3882 10.949 26.5999 9.83938C27.9126 9.18079 27.9445 9.18755 29.1202 10.3773C29.8568 11.1227 30.278 11.457 30.7837 11.698L31.4608 12.0209L31.4957 11.6773C31.5552 11.0895 31.3063 10.1031 30.8621 9.16801C30.0431 7.4438 28.2533 6.0228 26.4046 5.62898C25.5162 5.43983 24.4267 5.44152 23.5468 5.63352ZM26.6283 11.7653C25.6172 12.2654 23.2923 13.0121 21.9008 13.2837C21.2652 13.4078 20.6318 13.5331 20.4933 13.5624C20.2421 13.6154 20.2416 13.6184 20.3068 14.6921C20.406 16.3294 20.7458 17.208 21.6361 18.1303C22.5607 19.0881 23.6526 19.5483 24.9999 19.5483C26.3472 19.5483 27.4391 19.0881 28.3637 18.1303C29.3029 17.1574 29.6107 16.304 29.6914 14.4486L29.7488 13.1284L29.2894 12.8436C29.0368 12.687 28.5399 12.2948 28.1854 11.9723C27.8308 11.6498 27.5008 11.3894 27.4522 11.3938C27.4035 11.3981 27.0327 11.5653 26.6283 11.7653ZM17.5637 21.7328C15.7349 22.2262 14.0602 23.5344 13.0983 25.2209C12.5139 26.2456 12.3281 27.1212 11.7539 31.5576L11.2003 35.8349L8.52126 38.5496L5.84224 41.2642L5.42917 40.8891C4.86723 40.3788 4.40278 40.2045 3.60404 40.2045C2.78094 40.2045 2.31869 40.347 1.6019 40.8215C-0.290984 42.0748 -0.554253 44.8351 1.06875 46.4121C1.62165 46.9495 2.16804 47.247 2.907 47.4133C3.21639 47.4829 3.45392 47.5676 3.4349 47.6015C2.63323 49.0325 2.57314 50.4089 3.25179 51.7947C3.64428 52.5961 4.31359 53.229 5.23061 53.6657L5.93238 54H24.9999H44.0674L44.7692 53.6657C45.6862 53.229 46.3555 52.5961 46.748 51.7947C47.4267 50.4089 47.3666 49.0325 46.5649 47.6015C46.5459 47.5676 46.7834 47.4829 47.0928 47.4133C48.2195 47.1598 49.1651 46.4198 49.6598 45.4041C50.0542 44.5944 50.1131 43.361 49.7974 42.5198C49.3539 41.3377 48.2509 40.431 47.0206 40.2371C46.0163 40.0787 45.2315 40.2888 44.5644 40.8947L44.1576 41.2642L41.4785 38.5496L38.7995 35.8349L38.2459 31.5576C37.5682 26.3211 37.3934 25.6925 36.205 24.2176C34.8476 22.533 32.8149 21.5245 30.7767 21.5245C30.1122 21.5245 29.9061 21.5669 29.6173 21.7625C28.9479 22.2161 28.8411 22.5481 28.7768 24.3781C28.7224 25.9268 28.7014 26.0551 28.3977 26.7016C28.0127 27.5212 27.3636 28.1902 26.5765 28.5788C26.0709 28.8285 25.872 28.8645 24.9999 28.8645C24.1278 28.8645 23.9289 28.8285 23.4233 28.5788C22.6362 28.1902 21.9871 27.5212 21.6021 26.7016C21.2984 26.0551 21.2774 25.9268 21.223 24.3781C21.16 22.587 21.0616 22.2592 20.4487 21.7996C20.025 21.4819 18.6146 21.4492 17.5637 21.7328ZM18.6966 23.284C18.5521 23.3065 18.2311 23.378 17.9833 23.443L17.5326 23.5609L17.5929 23.9949C17.9694 26.7056 19.2219 38.11 19.2219 38.8278C19.2219 39.643 19.1222 40.1757 18.4947 42.7117C18.0948 44.3282 17.7903 45.6879 17.818 45.733C17.8841 45.8404 32.1157 45.8404 32.1818 45.733C32.2095 45.6879 31.905 44.3282 31.5051 42.7117C30.8776 40.1757 30.7779 39.643 30.7779 38.8278C30.7779 38.1106 32.0297 26.7122 32.4065 23.9978C32.4655 23.5731 32.4606 23.5652 32.0686 23.4521C31.8499 23.3891 31.4227 23.3053 31.1194 23.266L30.5678 23.1945L30.5659 23.9701C30.5649 24.3966 30.5197 25.1695 30.4655 25.6875C30.2209 28.0253 28.5791 29.9188 26.2852 30.5087C25.2853 30.7657 24.7145 30.7657 23.7146 30.5087C21.4207 29.9188 19.7789 28.0253 19.5343 25.6875C19.4801 25.1695 19.4349 24.4012 19.4339 23.98C19.4318 23.1413 19.4574 23.1655 18.6966 23.284ZM15.4805 24.9305C14.7394 25.7363 14.3145 26.5203 14.0905 27.4953C14.0243 27.7837 13.7341 29.8018 13.4456 31.98C13.1571 34.1583 12.8923 36.1306 12.857 36.3629C12.7987 36.7477 12.4919 37.089 9.422 40.1866C7.56809 42.0573 5.92156 43.6418 5.76324 43.7078C5.23198 43.9289 4.73002 43.5153 4.56855 42.7234C4.37431 41.7703 3.18099 41.6358 2.34821 42.4728C1.20574 43.6214 1.68826 45.3379 3.25557 45.701C3.51443 45.7609 4.43681 45.8111 5.30531 45.8126L6.88429 45.8151L10.7233 41.9339C14.1505 38.469 14.5916 37.9847 14.8349 37.419C15.0088 37.0147 15.3609 35.5092 15.8075 33.2598L16.5074 29.7343L16.2167 27.1608C16.0567 25.7454 15.8967 24.5873 15.861 24.5873C15.8254 24.5873 15.6542 24.7418 15.4805 24.9305ZM33.7831 27.1608L33.4924 29.7343L34.1923 33.2598C34.6389 35.5092 34.991 37.0147 35.1649 37.419C35.4081 37.9844 35.8518 38.472 39.2797 41.9415L43.1219 45.8303L44.9604 45.7963C47.0703 45.7573 47.4043 45.6554 47.9448 44.8863C48.5339 44.0479 48.3215 42.8166 47.4905 42.2537C46.6192 41.6634 45.6 41.8959 45.4312 42.7234C45.2698 43.5153 44.7678 43.9289 44.2366 43.7078C44.0782 43.6418 42.4327 42.0573 40.5797 40.1866C37.7291 37.3087 37.2013 36.7284 37.1497 36.4157C37.1161 36.2124 36.8502 34.2401 36.5588 32.0329C35.99 27.7255 35.9023 27.23 35.5789 26.492C35.2875 25.8276 34.3498 24.5873 34.1388 24.5873C34.1031 24.5873 33.9431 25.7454 33.7831 27.1608ZM16.9243 36.5296C16.7761 37.19 16.5225 37.9135 16.2497 38.4539C15.8437 39.2585 15.5903 39.5458 12.6847 42.4963C10.9643 44.2433 9.55679 45.7047 9.55679 45.7438C9.55679 45.783 10.9928 45.8151 12.7478 45.8151H15.939L16.6789 42.8316C17.0858 41.1906 17.4501 39.5867 17.4883 39.2672C17.543 38.8114 17.2831 35.6122 17.1819 35.4946C17.1708 35.4817 17.0549 35.9474 16.9243 36.5296ZM32.6582 36.6797C32.3964 38.9386 32.4318 39.2772 33.2908 42.726L34.0601 45.8151H37.2515C39.0069 45.8151 40.443 45.783 40.443 45.7438C40.443 45.7047 39.0366 44.2433 37.3176 42.4963C33.7452 38.8657 33.6012 38.6645 33.0948 36.5959L32.8052 35.4124L32.6582 36.6797ZM6.10436 47.6495C5.58097 47.8399 4.93583 48.4297 4.71406 48.9207C4.25875 49.9288 4.62444 51.2182 5.54893 51.8636L6.03744 52.2046L13.6802 52.233C19.8198 52.2558 21.323 52.2349 21.323 52.1268C21.323 52.0361 20.3193 51.7713 18.2501 51.3162C16.56 50.9444 14.9957 50.5769 14.7738 50.4996C13.767 50.1488 13.0236 49.1146 13.0236 48.0651V47.5049L9.74063 47.5129C7.44371 47.5185 6.35155 47.5596 6.10436 47.6495ZM14.7354 47.9435C14.8424 48.7463 14.9466 48.7929 18.3026 49.5425L21.323 50.2171V48.861V47.5049H17.9999H14.6769L14.7354 47.9435ZM23.1089 49.8826V52.2605L33.5356 52.2325L43.9624 52.2046L44.4509 51.8636C45.3738 51.2193 45.7412 49.9287 45.2875 48.9247C45.0493 48.3974 44.3634 47.7912 43.8197 47.6275C43.523 47.5382 40.6612 47.5049 33.2608 47.5049H23.1089V49.8826Z" fill="white"/>
</svg>
