<svg width="55" height="55" viewBox="0 0 55 55" fill="none" xmlns="http://www.w3.org/2000/svg">
<path fill-rule="evenodd" clip-rule="evenodd" d="M26.3511 0.0630786C25.7265 0.19791 24.8281 0.551247 24.2519 0.888825C23.5889 1.27701 22.5146 2.36864 22.1856 2.98831C21.934 3.46217 21.8812 3.49934 21.3577 3.57025C20.6549 3.66547 19.598 4.04355 18.9123 4.44505C18.1483 4.89249 17.1641 5.94184 16.7376 6.76415L16.3671 7.47815L15.9174 7.30714C15.2364 7.04802 13.1978 7.05767 12.4138 7.32367C10.4541 7.98862 9.0458 9.30542 8.39847 11.0784C8.19568 11.6338 8.11705 11.7282 7.7639 11.8398C6.5453 12.2254 5.09315 13.3728 4.46225 14.4486C3.71618 15.7206 3.37902 17.4244 3.61845 18.712L3.73195 19.3224L3.23076 19.9313C2.07413 21.3367 1.53451 23.2723 1.84002 24.92L1.95208 25.5239L1.446 26.1407C-0.630832 28.6717 -0.451812 32.2943 1.86246 34.5712C2.53711 35.235 3.39934 35.7481 4.41782 36.0917C5.26828 36.3787 7.12556 36.3778 7.97157 36.0901C9.25825 35.6524 10.3217 34.9472 10.9925 34.0869L11.3697 33.6031L12.1416 34.0905C14.0185 35.2756 16.3271 35.7118 18.5214 35.2958C19.0234 35.2007 19.4541 35.1428 19.4786 35.1672C19.8372 35.5257 21.7566 38.4114 22.078 39.0755C22.7945 40.556 23.0166 41.5915 23.0063 43.4034C22.9899 46.2841 22.4648 47.516 19.6501 51.2755C17.5906 54.0265 17.5022 54.2132 18.017 54.7276L18.2895 55H21.6569H25.0242L27.1047 54.1669L29.1851 53.334L30.4327 54.1669L31.6803 55H34.2126H36.7448L37.0174 54.7276C37.5322 54.2132 37.4438 54.0265 35.3843 51.2755C32.5696 47.516 32.0444 46.2841 32.0281 43.4034C32.0178 41.5915 32.2399 40.556 32.9564 39.0755C33.2778 38.4114 35.1972 35.5257 35.5558 35.1672C35.5803 35.1428 36.011 35.2007 36.513 35.2958C38.7073 35.7118 41.0159 35.2756 42.8928 34.0905L43.6646 33.6031L44.0419 34.0869C45.0859 35.4259 47.0533 36.3566 48.8397 36.3566C50.4181 36.3566 52.0688 35.6699 53.1945 34.5451C54.4398 33.3007 55 31.9348 55 30.1422C55 28.5179 54.5956 27.3793 53.5813 26.1467L53.0793 25.5368L53.1928 24.9265C53.5002 23.2734 52.9623 21.3392 51.8036 19.9313L51.3024 19.3224L51.4159 18.712C51.6529 17.4375 51.318 15.7203 50.5904 14.4795C49.9641 13.4117 48.6948 12.3669 47.4902 11.9278C46.8865 11.7076 46.8538 11.675 46.6335 11.0718C45.9887 9.30575 44.5774 7.98762 42.6206 7.32367C41.8366 7.05767 39.7979 7.04802 39.117 7.30714L38.6673 7.47815L38.2968 6.76415C37.8703 5.94184 36.8861 4.89249 36.122 4.44505C35.4365 4.04366 34.3795 3.66547 33.6771 3.57025C33.1483 3.49868 33.1012 3.4645 32.8048 2.93771C31.8552 1.2496 29.8797 0.0944839 27.7948 0.00848022C27.2451 -0.0142691 26.5954 0.0103667 26.3511 0.0630786ZM26.4753 1.84951C25.7801 2.02407 24.7743 2.61545 24.3022 3.12714C24.0612 3.38837 23.6864 3.95477 23.4691 4.38568C23.0355 5.24627 23.0601 5.23218 21.8089 5.33016C19.9559 5.47509 18.3558 6.83817 17.8627 8.69174C17.609 9.64522 17.1597 9.78715 16.0446 9.26603C15.3143 8.92467 15.155 8.8926 14.1906 8.89183C13.2356 8.89105 13.0653 8.92423 12.3938 9.24217C11.0805 9.86383 10.1613 10.985 9.85872 12.3344C9.69914 13.0461 9.51401 13.2348 8.83225 13.3809C6.40181 13.9018 4.84405 16.4064 5.45918 18.8042C5.73782 19.8903 5.71716 19.9712 4.97865 20.6866C3.7596 21.8675 3.28273 23.4612 3.68231 25.0187C3.96094 26.1048 3.94029 26.1857 3.20178 26.9011C2.75256 27.3363 2.42362 27.7889 2.17452 28.3146C1.83947 29.0215 1.80804 29.1789 1.80804 30.1479C1.80804 31.1484 1.83136 31.255 2.22283 32.0465C2.72235 33.0565 3.36536 33.6856 4.39783 34.1744C5.06872 34.492 5.24063 34.5256 6.1947 34.5256C7.14877 34.5256 7.32068 34.492 7.99156 34.1744C8.93908 33.7258 9.6234 33.0928 10.0739 32.2482C10.7073 31.0608 11.1353 30.9964 12.1811 31.9312C12.5228 32.2367 13.2022 32.6841 13.6909 32.9255C16.4199 34.2737 19.4744 33.811 21.76 31.7033C22.7276 30.8111 22.8499 30.7807 23.8451 31.1848C25.1404 31.7108 25.9248 31.8536 27.5172 31.8536C29.1096 31.8536 29.894 31.7108 31.1893 31.1848C32.1863 30.78 32.3113 30.8109 33.2599 31.6962C35.5177 33.8031 38.6139 34.2739 41.3435 32.9255C41.8321 32.6841 42.5116 32.2367 42.8533 31.9312C43.8991 30.9964 44.3271 31.0608 44.9604 32.2482C45.411 33.0928 46.0953 33.7258 47.0428 34.1744C47.7137 34.492 47.8856 34.5256 48.8397 34.5256C49.7938 34.5256 49.9657 34.492 50.6366 34.1744C51.669 33.6856 52.312 33.0565 52.8116 32.0465C53.2035 31.2541 53.2263 31.1492 53.2263 30.1422C53.2263 29.136 53.2032 29.0298 52.8137 28.242C52.5317 27.672 52.2061 27.2263 51.7864 26.836C51.0965 26.1944 51.0743 26.1013 51.3521 25.0187C51.7532 23.455 51.2365 21.7626 50.0095 20.6215C49.3197 19.98 49.2975 19.8869 49.5752 18.8042C50.1903 16.4064 48.6326 13.9018 46.2021 13.3809C45.5204 13.2348 45.3352 13.0461 45.1757 12.3344C44.8728 10.9842 43.9525 9.86217 42.6406 9.2435C41.9809 8.93244 41.788 8.8936 40.8993 8.89238C39.6628 8.89061 39.0911 9.06861 39.0051 9.4822C38.7815 10.5571 38.0645 11.488 37.0918 11.9665C36.4524 12.281 36.236 12.331 35.5155 12.3303C34.8482 12.3298 34.5554 12.2713 34.0599 12.0397C32.9709 11.5306 32.184 10.5003 32.0128 9.35913L31.9342 8.83545L32.8074 8.83601L33.6807 8.83656L33.8473 9.35503C34.2934 10.7434 36.0399 11.028 36.9331 9.85795C37.3408 9.32384 37.3091 8.80826 36.806 7.7912C36.0997 6.36321 34.7728 5.45124 33.2255 5.33016C31.9741 5.23218 32.0138 5.25626 31.5107 4.29002C30.6944 2.72198 29.4079 1.86028 27.767 1.78226C27.2936 1.75974 26.7124 1.79003 26.4753 1.84951ZM15.1255 18.2959C15.2264 19.0793 15.7344 20.1382 16.3069 20.7589C16.5993 21.0758 17.0927 21.4241 17.6156 21.6822C18.4085 22.0738 18.5134 22.0967 19.5213 22.0967C20.5291 22.0967 20.634 22.0738 21.427 21.6822C21.9498 21.4241 22.4432 21.0758 22.7356 20.7589C23.3081 20.1382 23.8161 19.0793 23.917 18.2959L23.9921 17.7133H23.0893C22.3281 17.7133 22.1866 17.7417 22.1866 17.8946C22.1866 18.7335 21.2979 19.9095 20.4441 20.2001C19.3677 20.5667 18.499 20.3614 17.6851 19.5481C17.1648 19.0281 16.8559 18.4123 16.8559 17.8946C16.8559 17.7417 16.7145 17.7133 15.9532 17.7133H15.0504L15.1255 18.2959ZM34.8973 20.649C34.726 20.8201 34.6247 21.0482 34.6247 21.2629C34.6247 21.7604 34.3715 22.2871 33.9702 22.6246C33.0101 23.4319 31.4774 22.9549 31.1543 21.7482L31.0249 21.2644H30.1469H29.2689L29.3475 21.788C29.4357 22.376 29.8089 23.1759 30.2261 23.6715C30.3791 23.853 30.8192 24.1714 31.2041 24.3788C31.8448 24.7239 31.9836 24.7557 32.8478 24.7537C33.8172 24.7513 34.2571 24.6076 35.0911 24.0206L35.3909 23.8095L35.8564 24.3142C36.1448 24.6269 36.6412 24.9765 37.1612 25.2333C37.9541 25.6249 38.0591 25.6478 39.0669 25.6478C40.0747 25.6478 40.1796 25.6249 40.9726 25.2333C41.4954 24.9752 41.9888 24.6269 42.2812 24.31C42.8537 23.6893 43.3617 22.6304 43.4626 21.847L43.5377 21.2644H42.635C41.8737 21.2644 41.7322 21.2928 41.7322 21.4457C41.7322 22.2847 40.8435 23.4606 39.9897 23.7513C38.9133 24.1178 38.0446 23.9125 37.2307 23.0992C36.6581 22.5269 36.4016 21.9624 36.4016 21.2742C36.4016 20.8078 35.9747 20.3766 35.5131 20.3766C35.2968 20.3766 35.0691 20.4772 34.8973 20.649ZM6.24812 26.2269C6.33629 26.8149 6.70955 27.6148 7.12678 28.1104C7.2797 28.2919 7.71981 28.6103 8.10473 28.8177C8.74374 29.1621 8.88633 29.1948 9.74845 29.1948C10.6106 29.1948 10.7532 29.1621 11.3922 28.8177C11.7771 28.6103 12.2172 28.2919 12.3701 28.1104C12.7873 27.6148 13.1606 26.8149 13.2488 26.2269L13.3274 25.7033H12.4494H11.5714L11.4419 26.1871C11.2063 27.0675 10.3012 27.6071 9.35742 27.4302C8.79204 27.3242 8.21089 26.7695 8.05497 26.1871L7.92548 25.7033H7.04749H6.16949L6.24812 26.2269ZM31.6174 32.9442C31.5468 33.0206 30.7328 34.5811 29.8085 36.4121C28.3695 39.2628 28.0841 39.7564 27.8226 39.8459C27.1026 40.0926 27.0445 40.0151 25.185 36.329C23.8416 33.6659 23.4176 32.9167 23.254 32.9166C23.1386 32.9165 22.8336 33.1106 22.5761 33.3477C22.3186 33.585 21.901 33.897 21.6483 34.0413C21.3956 34.1856 21.1884 34.3454 21.188 34.3963C21.1874 34.4472 21.6327 35.1214 22.1774 35.8944C22.722 36.6675 23.3459 37.6509 23.5639 38.0799C25.2302 41.361 25.2553 45.2047 23.6319 48.5259C23.2696 49.2673 22.6175 50.2746 21.7445 51.4416L20.4106 53.2244H22.5527H24.6947L26.9064 52.3367C28.1228 51.8484 29.2201 51.449 29.3449 51.4491C29.4696 51.4491 30.1714 51.8486 30.9044 52.3367L32.237 53.2241L33.4304 53.2242L34.6238 53.2244L33.2899 51.4416C32.4169 50.2746 31.7648 49.2673 31.4024 48.5259C29.8171 45.2825 29.8009 41.5761 31.3578 38.2889C31.5627 37.8562 32.2067 36.8232 32.7888 35.9932C33.371 35.1632 33.847 34.4436 33.8464 34.394C33.846 34.3442 33.6461 34.1898 33.4022 34.0506C33.1582 33.9115 32.7072 33.5743 32.3998 33.3016C31.7726 32.7449 31.7934 32.7543 31.6174 32.9442ZM25.8514 33.6645C25.8514 33.7575 27.4694 36.9115 27.5172 36.9115C27.5649 36.9115 29.183 33.7575 29.183 33.6645C29.183 33.6499 28.4334 33.6378 27.5172 33.6378C26.601 33.6378 25.8514 33.6499 25.8514 33.6645Z" fill="white"/>
</svg>
