<svg width="51" height="51" viewBox="0 0 51 51" fill="none" xmlns="http://www.w3.org/2000/svg">
<path fill-rule="evenodd" clip-rule="evenodd" d="M19.0449 0.0956108C18.2564 0.226964 17.1117 0.698377 16.3891 1.18944C14.2354 2.65284 13.0351 5.07707 13.1947 7.64047C13.292 9.20426 13.9206 10.8047 14.859 11.8779C15.5232 12.6377 24.9498 21.2033 25.2488 21.3187C25.4061 21.3795 25.5948 21.3795 25.7536 21.3187C26.0551 21.2034 35.3441 12.7696 36.0818 11.9415C37.9488 9.8455 38.3479 6.64899 37.0678 4.04393C36.1562 2.18873 34.8001 0.991531 32.881 0.347723C30.6683 -0.394522 28.1185 0.0894392 26.2284 1.61045C25.8657 1.90226 25.538 2.141 25.5 2.141C25.462 2.141 25.1342 1.90226 24.7716 1.61045C23.1646 0.317276 21.0587 -0.239819 19.0449 0.0956108ZM19.0518 1.76751C15.5055 2.6731 13.7823 6.61443 15.5015 9.88798C15.7107 10.2863 16.1145 10.8473 16.3991 11.1345C17.2452 11.9887 25.4072 19.3702 25.5057 19.3702C25.6031 19.3702 33.7428 11.9993 34.6009 11.1339C36.4184 9.30106 36.6859 6.26923 35.2246 4.06625C34.1582 2.45853 32.1954 1.49956 30.2997 1.66013C28.947 1.77471 28.0292 2.21609 26.5495 3.46349C25.5732 4.28648 25.4393 4.28689 24.4621 3.46986C23.3836 2.56829 22.918 2.26896 22.1344 1.97313C21.285 1.65262 19.8713 1.55829 19.0518 1.76751ZM6.98443 9.99125C6.11117 10.3184 5.47743 10.907 5.15187 11.6933L5.02636 11.9965L4.5466 11.7755C3.8225 11.4419 2.60467 11.4695 1.89712 11.8356C1.1246 12.2352 0.800788 12.5474 0.409029 13.2705L0.0577718 13.9186L0.0288859 21.4489L0 28.9793L2.53374 33.638L5.06747 38.2967L8.49482 41.7425C11.0301 44.2914 11.9763 45.3088 12.1299 45.6512C12.3169 46.0682 12.3377 46.3313 12.3397 48.3045C12.342 50.4918 12.3424 50.4955 12.5944 50.7475L12.8466 51H18.0986H23.3506L23.6029 50.7475L23.8552 50.4951V45.009C23.8552 39.0834 23.833 38.8014 23.2942 37.8852C23.1611 37.6589 22.1249 36.4786 20.9914 35.2623L18.9307 33.0507L18.9001 28.6792L18.8696 24.3076L18.5965 23.7933C18.4463 23.5104 18.1919 23.1567 18.0311 23.0074C17.3034 22.3313 16.092 22.0356 15.252 22.3288L14.821 22.4793L14.7894 19.6904L14.7577 16.9016L14.4846 16.3873C14.3344 16.1044 14.08 15.7508 13.9192 15.6014C13.1927 14.9264 11.9801 14.6296 11.1431 14.9218L10.7151 15.0713L10.6785 13.5177C10.6446 12.0749 10.6227 11.9276 10.3708 11.4499C10.0474 10.8365 9.67709 10.4738 9.05548 10.1618C8.4902 9.87801 7.50376 9.79685 6.98443 9.99125ZM42.2045 10.0317C41.866 10.1475 41.5139 10.3845 41.173 10.7259C40.452 11.448 40.3027 11.9601 40.3027 13.7126V15.0772L39.9173 14.9396C38.9589 14.5974 37.8444 14.8799 37.0612 15.6637C36.2514 16.4739 36.1909 16.7675 36.1909 19.8842V22.4832L35.8054 22.3456C34.847 22.0034 33.7325 22.2859 32.9493 23.0697C32.0879 23.9315 32.0794 23.9887 32.0768 28.871L32.0747 33.0507L30.0112 35.2623C28.8764 36.4786 27.8389 37.6589 27.7058 37.8852C27.167 38.8014 27.1447 39.0834 27.1447 45.009V50.4951L27.3971 50.7475L27.6494 51H32.9014H38.1534L38.4056 50.7475C38.6576 50.4955 38.658 50.4918 38.6603 48.3045C38.6623 46.3313 38.6831 46.0682 38.8701 45.6512C39.0236 45.3088 39.9699 44.2914 42.5052 41.7425L45.9325 38.2967L48.4663 33.638L51 28.9793L50.9711 21.4489L50.9422 13.9186L50.6652 13.3933C50.2541 12.6135 49.9443 12.2938 49.2256 11.9076C48.6461 11.5961 48.4913 11.5592 47.7555 11.557C47.1307 11.5552 46.8194 11.607 46.4595 11.7729L45.9857 11.9912L45.7777 11.563C45.1114 10.1905 43.6146 9.54906 42.2045 10.0317ZM7.35635 11.5942C7.24327 11.6439 7.03511 11.8091 6.89376 11.9612L6.63677 12.2378L6.60881 18.7185L6.58085 25.1992L7.42512 26.278L8.26939 27.3569L8.46728 26.9636C8.57603 26.7474 8.75315 26.4739 8.86088 26.3559C9.05003 26.1486 9.05579 25.9032 9.02896 19.1832L9.0011 12.2253L8.68315 11.9071C8.34371 11.5675 7.74071 11.4253 7.35635 11.5942ZM42.7185 11.5942C42.6054 11.6439 42.3972 11.8091 42.2559 11.9612L41.9989 12.2378L41.971 19.1896C41.9442 25.9033 41.95 26.1486 42.1391 26.3559C42.2468 26.4739 42.424 26.7474 42.5327 26.9636L42.7306 27.3569L43.5749 26.278L44.4191 25.1992L44.3912 18.7122L44.3632 12.2253L44.0453 11.9071C43.7058 11.5675 43.1028 11.4253 42.7185 11.5942ZM2.62769 13.2866C2.24693 13.463 1.90555 13.8259 1.76081 14.2081C1.687 14.403 1.65112 16.8011 1.65112 21.5384V28.5792L4.01987 32.9236L6.38862 37.2681L9.81607 40.7139C12.1161 43.0261 13.3203 44.312 13.4767 44.6226C13.8892 45.442 13.9843 46.023 13.9855 47.7342L13.9867 49.3542H18.1023H22.2179L22.1885 44.2883L22.1591 39.2224L21.9021 38.7943C21.7041 38.4645 14.4935 30.6366 11.6156 27.6271C11.2196 27.2129 11.0863 27.1362 10.7628 27.1362C10.4929 27.1362 10.3049 27.2109 10.1272 27.3888C9.89862 27.6174 9.87487 27.7241 9.87487 28.5202V29.3993L12.6247 32.9012C14.1371 34.8272 15.3839 36.4357 15.3952 36.4755C15.4153 36.546 14.1807 37.5546 14.1403 37.5007C14.1292 37.4859 12.0664 34.8585 9.5561 31.6621L4.99202 25.8505L4.94062 20.0205C4.89046 14.334 4.88398 14.1837 4.67726 13.9067C4.56069 13.7505 4.3444 13.5323 4.19668 13.422C3.85601 13.1675 3.03734 13.0968 2.62769 13.2866ZM47.0359 13.2866C46.6552 13.463 46.3138 13.8259 46.1691 14.2081C46.0962 14.4004 46.0594 16.3914 46.0594 20.1341V25.7704L41.6648 31.3674C39.2478 34.4459 37.1717 37.0899 37.0512 37.2432L36.8321 37.5218L36.2081 37.035C35.8649 36.7671 35.5934 36.5154 35.6048 36.4755C35.6161 36.4357 36.863 34.8272 38.3753 32.9012L41.1251 29.3993V28.5202C41.1251 27.7241 41.1014 27.6174 40.8728 27.3888C40.6951 27.2109 40.5071 27.1362 40.2372 27.1362C39.9137 27.1362 39.7804 27.2129 39.3844 27.6271C36.5065 30.6366 29.2959 38.4645 29.0979 38.7943L28.8409 39.2224L28.8115 44.2883L28.7821 49.3542H32.8977H37.0132L37.0145 47.7342C37.0157 46.023 37.1108 45.442 37.5233 44.6226C37.6797 44.312 38.8839 43.0261 41.1839 40.7139L44.6114 37.2681L46.9822 32.9198L49.353 28.5717L49.3252 21.3812C49.2979 14.3012 49.2942 14.1863 49.0855 13.9068C48.9689 13.7505 48.7527 13.5323 48.6049 13.422C48.2643 13.1675 47.4456 13.0968 47.0359 13.2866ZM11.4682 16.5316C11.3551 16.5813 11.147 16.7463 11.0056 16.8985L10.7486 17.1751L10.7196 21.3328L10.6906 25.4905H10.9132C11.4313 25.4905 11.9922 25.764 12.5678 26.2972L13.1703 26.8553L13.1417 22.0089L13.113 17.1625L12.795 16.8444C12.4556 16.5048 11.8525 16.3627 11.4682 16.5316ZM38.6066 16.5316C38.4935 16.5813 38.2854 16.7463 38.144 16.8985L37.887 17.1752L37.8583 22.0152L37.8297 26.8553L38.4322 26.2972C39.0078 25.764 39.5687 25.4905 40.0868 25.4905H40.3094L40.2804 21.3264L40.2514 17.1625L39.9334 16.8444C39.594 16.5048 38.9909 16.3627 38.6066 16.5316ZM15.5801 23.9376C15.467 23.9872 15.2589 24.1523 15.1175 24.3044C14.8642 24.5767 14.86 24.6099 14.8287 26.5849L14.7968 28.5891L15.1816 29.0198C15.3932 29.2568 15.9529 29.8636 16.4254 30.3683L17.2845 31.2861L17.2547 27.9272L17.2248 24.5684L16.9069 24.2504C16.5675 23.9108 15.9644 23.7687 15.5801 23.9376ZM34.4947 23.9376C34.3816 23.9872 34.1735 24.1523 34.0321 24.3045L33.7751 24.581L33.7453 27.9335L33.7155 31.2861L34.5746 30.3683C35.0471 29.8636 35.6068 29.2568 35.8184 29.0198L36.2032 28.5891L36.1713 26.5786L36.1395 24.5682L35.8215 24.2503C35.4821 23.9108 34.8789 23.7687 34.4947 23.9376Z" fill="white"/>
</svg>
